<svg xmlns="http://www.w3.org/2000/svg" xmlns:xlink="http://www.w3.org/1999/xlink" width="200" zoomAndPan="magnify" viewBox="60 50 250 250" height="200" preserveAspectRatio="xMidYMid meet" version="1.0"><defs><g/><clipPath id="d15eeb5bfd"><path d="M 134.859375 100.265625 L 206.859375 100.265625 L 206.859375 172.265625 L 134.859375 172.265625 Z M 134.859375 100.265625 " clip-rule="nonzero"/></clipPath><clipPath id="a9833d9590"><path d="M 134.867188 145.421875 L 169.617188 145.421875 L 169.617188 218.503906 L 134.867188 218.503906 Z M 134.867188 145.421875 " clip-rule="nonzero"/></clipPath><clipPath id="9845818938"><path d="M 187.5 120.308594 L 222.25 120.308594 L 222.25 193.390625 L 187.5 193.390625 Z M 187.5 120.308594 " clip-rule="nonzero"/></clipPath><clipPath id="493a1881f7"><path d="M 190 129.976562 L 224 129.976562 L 224 140 L 190 140 Z M 190 129.976562 " clip-rule="nonzero"/></clipPath><clipPath id="c611c9ca17"><path d="M 118.34375 152 L 246 152 L 246 199 L 118.34375 199 Z M 118.34375 152 " clip-rule="nonzero"/></clipPath><clipPath id="b5b3b0969c"><path d="M 260.949219 235.347656 L 264.800781 235.347656 L 264.800781 239.199219 L 260.949219 239.199219 Z M 260.949219 235.347656 " clip-rule="nonzero"/></clipPath><clipPath id="885009353a"><path d="M 262.875 235.347656 C 261.8125 235.347656 260.949219 236.210938 260.949219 237.273438 C 260.949219 238.335938 261.8125 239.199219 262.875 239.199219 C 263.9375 239.199219 264.800781 238.335938 264.800781 237.273438 C 264.800781 236.210938 263.9375 235.347656 262.875 235.347656 Z M 262.875 235.347656 " clip-rule="nonzero"/></clipPath></defs><g clip-path="url(#d15eeb5bfd)"><path fill="#2b3861" d="M 206.753906 113.746094 L 206.753906 109.253906 L 203.933594 108.46875 L 163.164062 101.359375 L 163.164062 100.265625 L 154.105469 100.265625 L 154.105469 101.296875 L 135.175781 110.433594 L 134.859375 110.9375 L 134.859375 113.746094 L 154.105469 113.746094 L 154.105469 167.667969 L 150.804688 167.667969 L 144.765625 172.160156 L 171.9375 172.160156 L 165.898438 167.667969 L 163.164062 167.667969 L 163.164062 113.746094 L 200.527344 113.746094 L 200.527344 142.546875 C 200.1875 142.742188 199.960938 143.101562 199.960938 143.515625 C 199.960938 143.929688 200.1875 144.289062 200.523438 144.484375 L 200.523438 146.269531 L 201.089844 146.269531 C 202.339844 146.269531 203.355469 147.277344 203.355469 148.519531 C 203.355469 149.757812 202.339844 150.765625 201.089844 150.765625 C 199.84375 150.765625 198.824219 149.757812 198.824219 148.519531 C 198.824219 148.207031 198.570312 147.957031 198.257812 147.957031 C 197.945312 147.957031 197.691406 148.207031 197.691406 148.519531 C 197.691406 150.378906 199.21875 151.890625 201.089844 151.890625 C 202.964844 151.890625 204.488281 150.378906 204.488281 148.519531 C 204.488281 146.851562 203.261719 145.460938 201.65625 145.195312 L 201.65625 144.484375 C 201.996094 144.289062 202.222656 143.929688 202.222656 143.515625 C 202.222656 143.101562 201.996094 142.742188 201.65625 142.546875 L 201.65625 113.746094 Z M 156.371094 105.324219 L 156.371094 105.089844 L 157.828125 106.511719 L 156.371094 107.933594 Z M 156.371094 113.746094 L 156.371094 111.832031 L 157.828125 113.25 L 156.371094 114.671875 Z M 156.371094 118.570312 L 157.828125 119.992188 L 156.371094 121.414062 Z M 156.371094 125.3125 L 157.828125 126.730469 L 156.371094 128.152344 Z M 156.371094 132.050781 L 157.828125 133.472656 L 156.371094 134.894531 Z M 156.371094 138.789062 L 157.828125 140.210938 L 156.371094 141.632812 Z M 156.371094 145.53125 L 157.828125 146.953125 L 156.371094 148.375 Z M 156.371094 152.269531 L 157.828125 153.691406 L 156.371094 155.113281 Z M 156.371094 159.011719 L 157.828125 160.433594 L 156.371094 161.855469 Z M 154.105469 111.5 L 141.605469 111.5 L 154.105469 108.238281 Z M 154.105469 105.914062 L 138.933594 109.875 L 154.105469 102.578125 Z M 157.320312 167.667969 L 156.371094 167.667969 L 156.371094 165.75 L 157.828125 167.171875 Z M 160.898438 167.667969 L 159.949219 167.667969 L 159.441406 167.171875 L 160.898438 165.75 Z M 160.898438 164.175781 L 158.632812 166.386719 L 156.371094 164.175781 L 156.371094 163.429688 L 158.632812 161.21875 L 160.898438 163.429688 Z M 160.898438 161.855469 L 159.441406 160.433594 L 160.898438 159.011719 Z M 160.898438 157.4375 L 158.632812 159.644531 L 156.371094 157.4375 L 156.371094 156.6875 L 158.632812 154.480469 L 160.898438 156.6875 Z M 160.898438 155.113281 L 159.441406 153.691406 L 160.898438 152.269531 Z M 160.898438 150.695312 L 158.632812 152.90625 L 156.371094 150.695312 L 156.371094 149.949219 L 158.632812 147.738281 L 160.898438 149.949219 Z M 160.898438 148.375 L 159.441406 146.953125 L 160.898438 145.53125 Z M 160.898438 143.957031 L 158.632812 146.164062 L 156.371094 143.957031 L 156.371094 143.207031 L 158.632812 141 L 160.898438 143.207031 Z M 160.898438 141.632812 L 159.441406 140.210938 L 160.898438 138.789062 Z M 160.898438 137.214844 L 158.632812 139.425781 L 156.371094 137.214844 L 156.371094 136.46875 L 158.632812 134.261719 L 160.898438 136.46875 Z M 160.898438 134.894531 L 159.441406 133.472656 L 160.898438 132.050781 Z M 160.898438 130.476562 L 158.632812 132.683594 L 156.371094 130.476562 L 156.371094 129.730469 L 158.632812 127.519531 L 160.898438 129.730469 Z M 160.898438 128.152344 L 159.441406 126.730469 L 160.898438 125.3125 Z M 160.898438 123.734375 L 158.632812 125.945312 L 156.371094 123.734375 L 156.371094 122.988281 L 158.632812 120.78125 L 160.898438 122.988281 Z M 160.898438 121.414062 L 159.441406 119.992188 L 160.898438 118.570312 Z M 160.898438 116.996094 L 158.632812 119.203125 L 156.371094 116.996094 L 156.371094 116.25 L 158.632812 114.039062 L 160.898438 116.25 Z M 160.898438 114.671875 L 159.441406 113.25 L 160.898438 111.832031 Z M 160.898438 110.253906 L 158.632812 112.464844 L 156.371094 110.253906 L 156.371094 109.507812 L 158.632812 107.300781 L 160.898438 109.507812 Z M 160.898438 107.933594 L 159.441406 106.511719 L 160.898438 105.089844 Z M 160.898438 103.515625 L 158.632812 105.722656 L 156.371094 103.515625 L 156.371094 102.515625 L 160.898438 102.515625 Z M 163.164062 102.523438 L 196.851562 108.394531 L 163.164062 105.46875 Z M 163.730469 111.5 L 163.730469 107.773438 L 204.488281 111.3125 L 204.488281 111.5 Z M 163.730469 111.5 " fill-opacity="1" fill-rule="nonzero"/></g><g clip-path="url(#a9833d9590)"><path fill="#fdfdfd" d="M 134.867188 145.421875 L 169.617188 145.421875 L 169.617188 218.449219 L 134.867188 218.449219 Z M 134.867188 145.421875 " fill-opacity="1" fill-rule="nonzero"/></g><g clip-path="url(#9845818938)"><path fill="#fdfdfd" d="M 187.5 120.308594 L 222.25 120.308594 L 222.25 193.335938 L 187.5 193.335938 Z M 187.5 120.308594 " fill-opacity="1" fill-rule="nonzero"/></g><g clip-path="url(#493a1881f7)"><path fill="#8f877b" d="M 223.007812 135.984375 L 195.007812 135.984375 C 194.980469 135.984375 194.957031 135.992188 194.9375 136.007812 L 190.796875 139.21875 C 190.777344 139.234375 190.753906 139.242188 190.726562 139.242188 C 190.667969 139.242188 190.621094 139.195312 190.617188 139.136719 L 190.03125 130.09375 C 190.03125 130.09375 190.03125 130.089844 190.03125 130.085938 C 190.03125 130.027344 190.085938 129.976562 190.144531 129.976562 C 190.144531 129.976562 190.148438 129.976562 190.148438 129.976562 L 223.28125 129.976562 C 223.347656 129.976562 223.398438 130.027344 223.398438 130.085938 C 223.398438 130.089844 223.398438 130.089844 223.398438 130.089844 L 223.117188 135.871094 C 223.117188 135.933594 223.066406 135.984375 223.007812 135.984375 Z M 223.007812 135.984375 " fill-opacity="1" fill-rule="evenodd"/></g><path fill="#8f877b" d="M 222.363281 146.449219 L 195.617188 146.449219 C 195.589844 146.449219 195.5625 146.460938 195.542969 146.476562 L 191.402344 149.675781 C 191.382812 149.695312 191.355469 149.703125 191.328125 149.703125 C 191.261719 149.703125 191.207031 149.648438 191.203125 149.585938 L 190.925781 145.019531 C 190.925781 145.015625 190.925781 145.011719 190.925781 145.011719 C 190.925781 144.972656 190.941406 144.9375 190.976562 144.910156 L 196.738281 140.46875 C 196.761719 140.453125 196.789062 140.445312 196.816406 140.445312 L 222.691406 140.445312 C 222.761719 140.445312 222.816406 140.5 222.816406 140.570312 C 222.816406 140.570312 222.816406 140.574219 222.816406 140.578125 L 222.496094 146.328125 C 222.492188 146.398438 222.433594 146.449219 222.367188 146.449219 C 222.367188 146.449219 222.367188 146.449219 222.363281 146.449219 Z M 222.363281 146.449219 " fill-opacity="1" fill-rule="evenodd"/><path fill="#8f877b" d="M 173.550781 156.1875 L 169.390625 156.1875 C 168.914062 156.183594 168.464844 156.058594 168.082031 155.828125 L 156.441406 149.09375 C 156.320312 149.027344 156.328125 148.980469 156.460938 148.949219 C 157.355469 148.761719 158.375 148.941406 159.011719 148.933594 C 168.761719 148.722656 178.511719 149.058594 188.246094 148.90625 C 188.378906 148.90625 188.449219 148.96875 188.457031 149.097656 L 189.625 168.105469 C 189.628906 168.117188 189.625 168.128906 189.625 168.136719 C 189.609375 168.183594 189.558594 168.21875 189.511719 168.207031 C 189.5 168.203125 189.492188 168.199219 189.484375 168.195312 L 180.472656 162.988281 C 180.304688 162.890625 180.320312 162.839844 180.515625 162.839844 L 184.839844 162.816406 C 184.996094 162.816406 185.074219 162.742188 185.066406 162.585938 L 185.03125 160.640625 C 185.023438 160.492188 184.90625 160.375 184.761719 160.375 L 177.601562 160.375 C 177.488281 160.375 177.398438 160.46875 177.398438 160.574219 C 177.398438 160.59375 177.402344 160.609375 177.40625 160.628906 L 177.488281 160.945312 C 177.496094 160.957031 177.496094 160.972656 177.496094 160.988281 C 177.496094 161.085938 177.417969 161.160156 177.324219 161.160156 C 177.296875 161.160156 177.265625 161.152344 177.242188 161.136719 L 173.554688 159.023438 C 173.238281 158.84375 173.25 158.695312 173.597656 158.578125 L 173.707031 158.542969 C 173.820312 158.503906 173.871094 158.425781 173.859375 158.308594 L 173.726562 156.351562 C 173.71875 156.246094 173.660156 156.1875 173.550781 156.1875 Z M 173.59375 151.863281 C 173.59375 151.789062 173.535156 151.726562 173.460938 151.726562 L 165.691406 151.738281 C 165.617188 151.738281 165.554688 151.796875 165.554688 151.871094 C 165.554688 151.871094 165.554688 151.875 165.554688 151.875 L 165.558594 153.980469 C 165.558594 154.054688 165.617188 154.113281 165.695312 154.113281 L 173.464844 154.097656 C 173.539062 154.097656 173.597656 154.039062 173.597656 153.964844 Z M 184.644531 151.8125 C 184.644531 151.757812 184.601562 151.710938 184.550781 151.710938 L 177.191406 151.753906 C 177.140625 151.753906 177.09375 151.792969 177.09375 151.851562 L 177.105469 154.050781 C 177.105469 154.101562 177.152344 154.148438 177.207031 154.148438 L 184.558594 154.109375 C 184.617188 154.109375 184.65625 154.066406 184.65625 154.011719 Z M 184.863281 156.339844 C 184.863281 156.257812 184.789062 156.1875 184.707031 156.1875 L 177.464844 156.1875 C 177.378906 156.1875 177.308594 156.257812 177.308594 156.339844 L 177.308594 158.40625 C 177.308594 158.484375 177.378906 158.558594 177.464844 158.558594 L 184.707031 158.558594 C 184.789062 158.558594 184.863281 158.484375 184.863281 158.40625 Z M 184.863281 156.339844 " fill-opacity="1" fill-rule="evenodd"/><path fill="#2b3861" d="M 192.964844 196.15625 L 155.015625 150.640625 C 154.886719 150.480469 154.910156 150.457031 155.085938 150.554688 L 210.585938 182.800781 C 210.742188 182.886719 210.898438 182.894531 211.058594 182.820312 L 229.523438 174.046875 C 229.535156 174.039062 229.550781 174.035156 229.566406 174.035156 C 229.617188 174.035156 229.660156 174.078125 229.660156 174.128906 C 229.660156 174.152344 229.65625 174.171875 229.644531 174.1875 L 214.90625 196.171875 C 214.835938 196.273438 214.726562 196.328125 214.609375 196.328125 L 193.332031 196.328125 C 193.183594 196.328125 193.0625 196.273438 192.964844 196.15625 Z M 192.964844 196.15625 " fill-opacity="1" fill-rule="evenodd"/><path fill="#8f877b" d="M 221.886719 156.9375 C 221.875 157.105469 221.78125 157.1875 221.613281 157.1875 L 196.390625 157.1875 C 196.328125 157.1875 196.261719 157.210938 196.214844 157.253906 L 192.0625 160.425781 C 191.941406 160.519531 191.875 160.488281 191.867188 160.339844 L 191.558594 155.652344 C 191.550781 155.519531 191.597656 155.40625 191.707031 155.324219 C 192.925781 154.355469 196.6875 150.953125 198.058594 150.945312 C 206.054688 150.910156 214.054688 150.898438 222.054688 150.914062 C 222.183594 150.914062 222.242188 150.976562 222.230469 151.097656 Z M 221.886719 156.9375 " fill-opacity="1" fill-rule="evenodd"/><g clip-path="url(#c611c9ca17)"><path fill="#8f877b" d="M 154.457031 153.75 C 154.410156 153.691406 154.335938 153.65625 154.257812 153.65625 C 154.175781 153.65625 154.101562 153.695312 154.054688 153.757812 L 119.292969 198.371094 C 119.214844 198.472656 119.082031 198.496094 118.976562 198.433594 L 118.585938 198.203125 C 118.421875 198.105469 118.394531 197.980469 118.511719 197.828125 L 153.898438 152.402344 C 153.984375 152.296875 154.113281 152.234375 154.246094 152.234375 C 154.378906 152.234375 154.503906 152.289062 154.589844 152.394531 L 192.175781 197.492188 C 192.269531 197.613281 192.429688 197.691406 192.59375 197.691406 L 215.265625 197.691406 C 215.441406 197.691406 215.601562 197.605469 215.691406 197.460938 L 230.398438 175.34375 C 230.472656 175.234375 230.601562 175.164062 230.738281 175.164062 C 230.875 175.164062 231.003906 175.234375 231.078125 175.34375 L 245.683594 197.765625 C 245.773438 197.902344 245.753906 198.027344 245.628906 198.128906 L 245.3125 198.402344 C 245.269531 198.441406 245.207031 198.464844 245.144531 198.464844 C 245.058594 198.464844 244.976562 198.421875 244.929688 198.351562 L 230.847656 176.726562 C 230.824219 176.691406 230.78125 176.667969 230.738281 176.667969 C 230.691406 176.667969 230.648438 176.691406 230.625 176.726562 L 216.199219 198.441406 C 216.128906 198.546875 216.03125 198.597656 215.898438 198.597656 L 192.199219 198.605469 C 191.960938 198.605469 191.738281 198.503906 191.585938 198.324219 Z M 154.457031 153.75 " fill-opacity="1" fill-rule="evenodd"/></g><path fill="#8f877b" d="M 154.316406 155.441406 L 155.554688 156.898438 C 155.578125 156.929688 155.59375 156.960938 155.59375 157 C 155.59375 157.03125 155.582031 157.066406 155.558594 157.097656 L 127.789062 195.019531 C 127.765625 195.046875 127.753906 195.078125 127.753906 195.113281 C 127.753906 195.132812 127.761719 195.152344 127.769531 195.175781 L 129.113281 198.289062 C 129.121094 198.308594 129.128906 198.332031 129.128906 198.355469 C 129.128906 198.4375 129.054688 198.511719 128.964844 198.511719 L 121.257812 198.511719 C 121.167969 198.511719 121.101562 198.4375 121.101562 198.355469 C 121.101562 198.316406 121.113281 198.28125 121.132812 198.253906 L 154.070312 155.445312 C 154.101562 155.40625 154.148438 155.386719 154.195312 155.386719 C 154.242188 155.386719 154.289062 155.40625 154.316406 155.441406 Z M 154.316406 155.441406 " fill-opacity="1" fill-rule="evenodd"/><path fill="#8f877b" d="M 192.246094 166.132812 L 197.914062 161.773438 C 197.941406 161.753906 197.972656 161.742188 198.007812 161.742188 L 221.445312 161.742188 C 221.527344 161.742188 221.597656 161.808594 221.597656 161.894531 C 221.597656 161.894531 221.597656 161.898438 221.597656 161.902344 L 221.328125 167.238281 C 221.324219 167.320312 221.257812 167.386719 221.175781 167.386719 L 196.84375 167.382812 C 196.8125 167.386719 196.78125 167.398438 196.753906 167.414062 L 192.671875 170.582031 C 192.644531 170.605469 192.613281 170.617188 192.578125 170.617188 C 192.496094 170.617188 192.429688 170.554688 192.425781 170.472656 L 192.179688 166.261719 C 192.179688 166.257812 192.179688 166.257812 192.179688 166.257812 C 192.179688 166.207031 192.203125 166.160156 192.246094 166.132812 Z M 192.246094 166.132812 " fill-opacity="1" fill-rule="evenodd"/><path fill="#8f877b" d="M 197.535156 173.503906 C 197.53125 173.5 197.523438 173.496094 197.519531 173.492188 C 197.417969 173.421875 197.398438 173.285156 197.46875 173.1875 C 197.472656 173.183594 197.476562 173.175781 197.484375 173.171875 L 198.546875 171.957031 C 198.609375 171.878906 198.695312 171.84375 198.792969 171.84375 L 220.828125 171.84375 C 220.964844 171.84375 221.03125 171.910156 221.019531 172.046875 L 220.683594 177.113281 C 220.667969 177.328125 220.496094 177.492188 220.285156 177.492188 C 220.28125 177.492188 220.28125 177.492188 220.28125 177.492188 C 215.285156 177.480469 210.292969 177.484375 205.300781 177.5 C 203.488281 177.507812 199.253906 174.546875 197.535156 173.503906 Z M 197.535156 173.503906 " fill-opacity="1" fill-rule="evenodd"/><path fill="#2b3861" d="M 157.523438 175.320312 L 161.636719 175.292969 C 162.078125 175.289062 162.445312 175.648438 162.449219 176.09375 L 162.476562 180.191406 C 162.476562 180.636719 162.121094 180.996094 161.679688 181 L 157.5625 181.03125 C 157.121094 181.035156 156.757812 180.675781 156.753906 180.230469 L 156.722656 176.128906 C 156.722656 175.6875 157.078125 175.324219 157.523438 175.320312 Z M 157.523438 175.320312 " fill-opacity="1" fill-rule="evenodd"/><path fill="#2b3861" d="M 149.636719 175.449219 L 153.6875 175.414062 C 154.148438 175.410156 154.527344 175.78125 154.53125 176.242188 L 154.5625 180.261719 C 154.570312 180.726562 154.199219 181.105469 153.734375 181.109375 L 149.683594 181.140625 C 149.222656 181.144531 148.84375 180.773438 148.839844 180.3125 L 148.808594 176.292969 C 148.804688 175.828125 149.171875 175.453125 149.636719 175.449219 Z M 149.636719 175.449219 " fill-opacity="1" fill-rule="evenodd"/><path fill="#8f877b" d="M 231.191406 179.140625 L 243.664062 198.324219 C 243.683594 198.355469 243.691406 198.386719 243.691406 198.421875 C 243.691406 198.519531 243.613281 198.597656 243.515625 198.597656 L 239.378906 198.601562 C 239.3125 198.601562 239.253906 198.570312 239.222656 198.511719 L 229.664062 181.417969 C 229.652344 181.390625 229.644531 181.359375 229.644531 181.328125 C 229.644531 181.296875 229.652344 181.269531 229.664062 181.242188 L 230.890625 179.148438 C 230.921875 179.09375 230.976562 179.058594 231.042969 179.058594 C 231.101562 179.058594 231.15625 179.089844 231.191406 179.140625 Z M 231.191406 179.140625 " fill-opacity="1" fill-rule="evenodd"/><path fill="#2b3861" d="M 157.527344 182.699219 L 161.640625 182.671875 C 162.082031 182.667969 162.449219 183.027344 162.453125 183.472656 L 162.480469 187.570312 C 162.480469 188.015625 162.125 188.375 161.683594 188.378906 L 157.566406 188.410156 C 157.125 188.414062 156.761719 188.054688 156.757812 187.609375 L 156.726562 183.507812 C 156.726562 183.066406 157.082031 182.703125 157.527344 182.699219 Z M 157.527344 182.699219 " fill-opacity="1" fill-rule="evenodd"/><path fill="#2b3861" d="M 149.550781 182.835938 L 153.78125 182.808594 C 154.191406 182.804688 154.527344 183.132812 154.53125 183.542969 L 154.558594 187.765625 C 154.5625 188.179688 154.230469 188.511719 153.820312 188.511719 L 149.589844 188.542969 C 149.179688 188.546875 148.84375 188.214844 148.839844 187.808594 L 148.8125 183.582031 C 148.8125 183.175781 149.140625 182.839844 149.550781 182.835938 Z M 149.550781 182.835938 " fill-opacity="1" fill-rule="evenodd"/><path fill="#2b3861" d="M 226.125 190.3125 L 227.808594 190.328125 C 227.921875 190.328125 228.015625 190.425781 228.011719 190.535156 L 227.996094 192.210938 C 227.996094 192.328125 227.902344 192.421875 227.789062 192.417969 L 226.109375 192.402344 C 225.992188 192.402344 225.898438 192.308594 225.898438 192.195312 L 225.914062 190.519531 C 225.917969 190.40625 226.011719 190.3125 226.125 190.3125 Z M 226.125 190.3125 " fill-opacity="1" fill-rule="evenodd"/><path fill="#2b3861" d="M 229.097656 190.324219 L 230.8125 190.3125 C 230.914062 190.308594 231.003906 190.398438 231.003906 190.503906 L 231.015625 192.210938 C 231.015625 192.320312 230.929688 192.410156 230.820312 192.410156 L 229.113281 192.421875 C 229.007812 192.421875 228.917969 192.335938 228.917969 192.226562 L 228.90625 190.515625 C 228.90625 190.410156 228.992188 190.324219 229.097656 190.324219 Z M 229.097656 190.324219 " fill-opacity="1" fill-rule="evenodd"/><path fill="#2b3861" d="M 226.226562 193.074219 L 227.648438 193.054688 C 227.835938 193.050781 227.988281 193.199219 227.992188 193.390625 L 228.011719 194.875 C 228.015625 195.0625 227.867188 195.214844 227.675781 195.21875 L 226.261719 195.238281 C 226.070312 195.242188 225.917969 195.089844 225.914062 194.902344 L 225.894531 193.421875 C 225.890625 193.230469 226.042969 193.078125 226.226562 193.074219 Z M 226.226562 193.074219 " fill-opacity="1" fill-rule="evenodd"/><path fill="#2b3861" d="M 229.289062 193.070312 L 230.617188 193.066406 C 230.824219 193.066406 231 193.238281 231 193.445312 L 231.003906 194.839844 C 231.003906 195.046875 230.832031 195.222656 230.625 195.222656 L 229.296875 195.226562 C 229.085938 195.226562 228.914062 195.054688 228.914062 194.84375 L 228.910156 193.453125 C 228.90625 193.246094 229.078125 193.070312 229.289062 193.070312 Z M 229.289062 193.070312 " fill-opacity="1" fill-rule="evenodd"/><path fill="#2b3861" d="M 130.664062 194.546875 C 142.839844 199.242188 157.898438 203.445312 174.394531 206.472656 C 217.320312 214.339844 253.71875 211.226562 255.6875 199.523438 C 256.597656 194.140625 250.058594 187.878906 238.566406 181.917969 C 246.257812 186.699219 250.371094 191.519531 249.625 195.789062 C 247.574219 207.492188 209.722656 210.601562 165.085938 202.738281 C 152.632812 200.539062 140.96875 197.722656 130.664062 194.546875 Z M 130.664062 194.546875 " fill-opacity="1" fill-rule="evenodd"/><g clip-path="url(#b5b3b0969c)"><g clip-path="url(#885009353a)"><path fill="#003456" d="M 260.949219 235.347656 L 264.800781 235.347656 L 264.800781 239.199219 L 260.949219 239.199219 Z M 260.949219 235.347656 " fill-opacity="1" fill-rule="nonzero"/></g></g><g fill="#2b3861" fill-opacity="1"><g transform="translate(64.572905, 238.747674)"><g><path d="M 1.84375 -17.34375 L 6.0625 -17.34375 L 6.0625 -10.328125 L 12.421875 -10.328125 L 12.421875 -17.34375 L 16.609375 -17.34375 L 16.609375 0 L 12.421875 0 L 12.421875 -6.890625 L 6.0625 -6.890625 L 6.0625 0 L 1.84375 0 Z M 1.84375 -17.34375 "/></g></g></g><g fill="#2b3861" fill-opacity="1"><g transform="translate(86.537374, 238.747674)"><g><path d="M 19.765625 -19.53125 L 19.765625 -18.0625 C 19.765625 -16.625 18.851562 -15.71875 17.03125 -15.34375 L 17.03125 -6.46875 C 17.03125 -4.132812 16.382812 -2.378906 15.09375 -1.203125 C 13.800781 -0.0351562 12.046875 0.546875 9.828125 0.546875 C 7.140625 0.546875 5.132812 -0.0234375 3.8125 -1.171875 C 2.5 -2.316406 1.84375 -4.082031 1.84375 -6.46875 L 1.84375 -17.34375 L 6.234375 -17.34375 L 6.234375 -6.65625 C 6.234375 -5.320312 6.503906 -4.332031 7.046875 -3.6875 C 7.585938 -3.050781 8.445312 -2.734375 9.625 -2.734375 C 10.71875 -2.734375 11.554688 -3.0625 12.140625 -3.71875 C 12.734375 -4.375 13.03125 -5.351562 13.03125 -6.65625 L 13.03125 -17.34375 L 15.90625 -17.34375 C 16.363281 -17.394531 16.722656 -17.523438 16.984375 -17.734375 C 17.253906 -17.941406 17.390625 -18.21875 17.390625 -18.5625 L 17.390625 -19.53125 Z M 19.765625 -19.53125 "/></g></g></g><g fill="#2b3861" fill-opacity="1"><g transform="translate(111.20504, 238.747674)"><g><path d="M 16.984375 -17.34375 L 16.984375 0 L 13.8125 0 L 5.71875 -10.5625 L 5.71875 0 L 1.84375 0 L 1.84375 -17.34375 L 5.4375 -17.34375 L 13.109375 -7.015625 L 13.109375 -17.34375 Z M 16.984375 -17.34375 "/></g></g></g><g fill="#2b3861" fill-opacity="1"><g transform="translate(133.533406, 238.747674)"><g><path d="M 9.5625 0.359375 C 6.875 0.359375 4.796875 -0.363281 3.328125 -1.8125 C 1.859375 -3.269531 1.125 -5.550781 1.125 -8.65625 C 1.125 -11.726562 1.867188 -14.007812 3.359375 -15.5 C 4.847656 -16.988281 6.914062 -17.734375 9.5625 -17.734375 C 11.664062 -17.734375 13.726562 -17.304688 15.75 -16.453125 L 15.75 -12.640625 C 14.570312 -13.265625 13.550781 -13.722656 12.6875 -14.015625 C 11.832031 -14.304688 10.96875 -14.453125 10.09375 -14.453125 C 8.507812 -14.453125 7.332031 -14.015625 6.5625 -13.140625 C 5.789062 -12.265625 5.40625 -10.78125 5.40625 -8.6875 C 5.40625 -6.625 5.796875 -5.144531 6.578125 -4.25 C 7.359375 -3.351562 8.46875 -2.90625 9.90625 -2.90625 C 10.925781 -2.90625 11.722656 -3.046875 12.296875 -3.328125 L 12.296875 -6.390625 L 9.4375 -6.390625 L 9.4375 -9.671875 L 16.515625 -9.671875 L 16.515625 -1.515625 C 14.253906 -0.265625 11.9375 0.359375 9.5625 0.359375 Z M 9.5625 0.359375 "/></g></g></g><g fill="#2b3861" fill-opacity="1"><g transform="translate(155.393909, 238.747674)"><g/></g></g><g fill="#2b3861" fill-opacity="1"><g transform="translate(166.077769, 238.747674)"><g><path d="M 5.484375 -14.09375 L 0.625 -14.09375 L 0.625 -17.34375 L 14.640625 -17.34375 L 14.640625 -14.09375 L 9.703125 -14.09375 L 9.703125 0 L 5.484375 0 Z M 5.484375 -14.09375 "/></g></g></g><g fill="#2b3861" fill-opacity="1"><g transform="translate(184.845208, 238.747674)"><g><path d="M 1.84375 -17.34375 L 6.0625 -17.34375 L 6.0625 -10.328125 L 12.421875 -10.328125 L 12.421875 -17.34375 L 16.609375 -17.34375 L 16.609375 0 L 12.421875 0 L 12.421875 -6.890625 L 6.0625 -6.890625 L 6.0625 0 L 1.84375 0 Z M 1.84375 -17.34375 "/></g></g></g><g fill="#2b3861" fill-opacity="1"><g transform="translate(206.80968, 238.747674)"><g><path d="M 1.84375 -17.34375 L 6.0625 -17.34375 L 6.0625 0 L 1.84375 0 Z M 2.390625 1.296875 L 5.203125 1.296875 L 5.203125 3.90625 L 2.390625 3.90625 Z M 2.390625 1.296875 "/></g></g></g><g fill="#2b3861" fill-opacity="1"><g transform="translate(218.221316, 238.747674)"><g><path d="M 16.984375 -17.34375 L 16.984375 0 L 13.8125 0 L 5.71875 -10.5625 L 5.71875 0 L 1.84375 0 L 1.84375 -17.34375 L 5.4375 -17.34375 L 13.109375 -7.015625 L 13.109375 -17.34375 Z M 16.984375 -17.34375 "/></g></g></g><g fill="#2b3861" fill-opacity="1"><g transform="translate(240.549688, 238.747674)"><g><path d="M 1.84375 -17.34375 L 6.0625 -17.34375 L 6.0625 -10.328125 L 12.421875 -10.328125 L 12.421875 -17.34375 L 16.609375 -17.34375 L 16.609375 0 L 12.421875 0 L 12.421875 -6.890625 L 6.0625 -6.890625 L 6.0625 0 L 1.84375 0 Z M 1.84375 -17.34375 "/></g></g></g><g fill="#2b3861" fill-opacity="1"><g transform="translate(262.51416, 238.747674)"><g/></g></g><g fill="#2b3861" fill-opacity="1"><g transform="translate(273.19802, 238.747674)"><g><path d="M 1.84375 -17.34375 L 6.0625 -17.34375 L 6.0625 -10.328125 L 12.421875 -10.328125 L 12.421875 -17.34375 L 16.609375 -17.34375 L 16.609375 0 L 12.421875 0 L 12.421875 -6.890625 L 6.0625 -6.890625 L 6.0625 0 L 1.84375 0 Z M 1.84375 -17.34375 "/></g></g></g><g fill="#2b3861" fill-opacity="1"><g transform="translate(295.162481, 238.747674)"><g><path d="M 5.484375 -14.09375 L 0.625 -14.09375 L 0.625 -17.34375 L 14.640625 -17.34375 L 14.640625 -14.09375 L 9.703125 -14.09375 L 9.703125 0 L 5.484375 0 Z M 5.484375 -14.09375 "/></g></g></g></svg>
